<?xml version="1.0" encoding="UTF-8"?><svg id="a" xmlns="http://www.w3.org/2000/svg" viewBox="0 0 106.55 152.69"><defs><style>.b{fill:none;stroke-width:3px;}.b,.c{stroke:#d3d3d3;}.b,.c,.d{stroke-miterlimit:10;}.c{fill:#fff;}.c,.d{stroke-width:2px;}.d{fill:#ee3a81;stroke:#ee3a81;}</style></defs><g><polygon class="c" points="1 1 1 143.05 105.55 143.05 105.55 28.35 77.15 1 1 1"/><polygon class="c" points="104.02 26.88 78.41 2.65 78.41 26.88 104.02 26.88"/></g><g><ellipse class="d" cx="69.83" cy="90.66" rx="11.55" ry="7.92" transform="translate(-4.2 3.39) rotate(-2.7)"/><g><path class="d" d="M32.38,31.94l2.46,52.18-2.46-52.18Z"/><path class="d" d="M78.76,34.73l2.54,53.73-2.54-53.73Z"/><polyline class="d" points="79.49 48.85 32.97 45.98 32.48 31.93 78.3 34.76"/><ellipse class="d" cx="23.21" cy="84.94" rx="11.55" ry="7.92" transform="translate(-3.98 1.19) rotate(-2.7)"/></g></g><polygon class="c" points="52.81 119.54 14.4 143.05 91.22 143.05 52.81 119.54"/><line class="b" x1="9.07" y1="151.19" x2="96.55" y2="151.19"/></svg>