<?xml version="1.0" encoding="UTF-8"?><svg id="a" xmlns="http://www.w3.org/2000/svg" viewBox="0 0 275.6 147.32"><defs><style>.b{fill:#231f20;}</style></defs><g><g><path class="b" d="M82.12,11.48c7.32,30.68,15.46,61.16,24.42,91.4,2.55,8.62,5.17,17.22,7.86,25.79,.51,1.62,2.94,2.67,4.18,1.1,6.96-8.81,9.46-20.63,6.28-31.46-.76-2.6-5.15-2.24-4.91,.66,.66,8,2.03,17.01,7.62,23.2,2.73,3.03,6.95,5.31,11.12,5.1,2.52-.13,4.93-1.1,6.44-3.2,1.6-2.22,1.81-5.21,2.29-7.82,4.5-24.13,9.01-48.25,13.51-72.38l7.6-40.73c.25-1.33-.37-2.7-1.75-3.08-1.22-.33-2.83,.41-3.08,1.75-4.25,22.74-8.49,45.47-12.74,68.21l-6.37,34.1-1.6,8.59-.73,3.93c-.23,1.24-.37,2.6-.82,3.78-1.35,3.49-6.38,1.42-8.45-.03-2.82-1.98-4.64-5.54-5.76-8.93-1.33-4.05-1.95-8.26-2.3-12.48l-4.91,.66c2.64,8.99,.85,19.2-4.99,26.6l4.18,1.1c-9.42-30.1-18.03-60.45-25.82-91.01-2.22-8.71-4.37-17.44-6.46-26.18-.75-3.13-5.57-1.8-4.82,1.33h0Z"/><path class="b" d="M156.75,107.35c-3.77,6.65,1.81,16.24,9.7,15.18,4.07-.55,7.51-3.55,8.78-7.43,1.19-3.63-.14-7.69-3.1-10.06-3.3-2.64-7.9-3.48-11.7-1.36-1.14,.64-1.62,2.3-.9,3.42s2.2,1.58,3.42,.9c.15-.09,.31-.16,.46-.24,.48-.25-.37,.06-.04,.02,.3-.04,.61-.2,.9-.26,.05,0,.33-.08,.34-.06l-.33,.04c.11-.01,.23-.02,.34-.03,.34-.02,.69-.02,1.03,0,.06,0,.61,.08,.18,.01s.13,.03,.18,.04c.28,.06,.56,.13,.84,.21,.17,.05,.33,.11,.49,.17,.44,.15-.07-.05-.11-.05,.28,.02,.68,.33,.93,.48,.15,.09,.3,.18,.44,.28,.03,.02,.5,.35,.17,.11s.12,.1,.15,.13c.13,.11,.26,.23,.38,.35,.16,.16,.51,.42,.58,.64-.1-.31-.22-.31-.08-.1,.12,.19,.25,.38,.36,.58,.07,.12,.13,.25,.2,.38,.2,.38,.15,.04-.01-.05,.13,.06,.21,.67,.25,.83,.03,.13,.09,.69,.04,.07,.01,.13,.02,.26,.03,.39,0,.19,.01,.39,0,.59-.01,.28-.06,.53,.01,.11-.06,.35-.14,.7-.24,1.04-.05,.16-.11,.31-.16,.46,.2-.58-.01,0-.06,.12-.15,.29-.31,.58-.49,.85-.07,.11-.15,.22-.22,.32,.35-.51-.15,.16-.24,.26-.22,.24-.46,.47-.71,.69-.08,.07-.61,.44-.11,.1-.11,.07-.21,.15-.32,.22-.27,.18-.56,.34-.85,.49-.11,.06-.7,.26-.12,.06-.18,.06-.37,.13-.55,.19s-.37,.1-.56,.14c-.04,0-.65,.07-.24,.05s-.22,0-.25,0c-.2,0-.39,0-.59,0-.13,0-.26-.02-.39-.03,.63,.06,.06,0-.07-.04-.11-.03-.22-.06-.33-.09-.11-.03-.22-.07-.32-.1-.26-.1-.21-.08,.12,.06-.19,.01-.6-.3-.75-.39s-.28-.19-.43-.28c-.24-.15-.15,.02,.1,.09-.21-.05-.48-.42-.63-.57-.12-.12-.24-.25-.35-.37-.08-.09-.15-.17-.22-.26l.18,.24c-.23-.14-.43-.63-.56-.86-.09-.15-.17-.3-.24-.46-.05-.1-.1-.21-.15-.31l.12,.28c-.18-.2-.67-1.75-.54-1.98l.05,.33c-.01-.11-.02-.23-.03-.34-.01-.2-.02-.4-.01-.59,0-.14,0-.28,.02-.42,0-.11,.02-.22,.03-.34-.05,.36-.06,.44-.03,.25,.12-.3,.17-.67,.25-.98l.03-.08c.1-.25,.08-.21-.06,.12-.01-.15,.24-.48,.31-.61,.64-1.14,.31-2.78-.9-3.42s-2.73-.32-3.42,.9h0Z"/><path class="b" d="M180.25,101.9c-3.94,2.58-5.89,7.66-4.55,12.22,1.34,4.59,5.99,7.65,10.72,7.46,5.17-.2,9.09-4.23,10.98-8.79,1.59-3.84,1.79-8.7-.87-12.12-1.79-2.3-4.74-3.47-7.63-3.25-3.2,.25-6.12,1.66-8.87,3.22-1.17,.67-1.57,2.27-.9,3.42s2.24,1.57,3.42,.9c1.85-1.05,3.54-1.95,5.59-2.41,.67-.15,1.63-.22,2.17-.11,.18,.04,.36,.08,.54,.13-.05-.01,.75,.3,.46,.16,.15,.07,.3,.16,.44,.25,.12,.07,.24,.15,.36,.23-.2-.16-.23-.18-.09-.07,.14,.12,.85,.91,.51,.46,.2,.27,.38,.56,.53,.86,.06,.12,.12,.24,.17,.37-.24-.55,0,.08,.04,.17,.12,.4,.22,.81,.28,1.22-.09-.58,.01,.45,.02,.62,0,.37,0,.74-.03,1.1-.01,.15-.03,.3-.04,.45,.07-.58-.03,.16-.05,.23-.08,.45-.19,.89-.32,1.33-.11,.37-.24,.72-.37,1.08-.17,.46-.06,.13-.01,.03-.09,.21-.19,.41-.29,.61-.17,.33-.35,.66-.55,.97-.1,.16-.21,.32-.32,.48-.07,.09-.47,.64-.36,.5-.29,.36-.6,.71-.93,1.04-.16,.16-.33,.32-.51,.48-.05,.04-.49,.4-.25,.22-.37,.29-.78,.49-1.18,.73-.58,.35,.4-.09-.25,.11-.22,.07-.43,.14-.66,.2-.18,.05-.37,.09-.56,.12-.42,.08,.59-.01-.13,.02-.38,.01-.76,.03-1.15,.01-.07,0-.81-.1-.25-.01-.15-.03-.3-.05-.45-.09-.45-.1-.89-.23-1.32-.39,.49,.18-.19-.1-.24-.12-.14-.07-.27-.14-.4-.22-.2-.12-.39-.24-.58-.37-.07-.04-.37-.29-.04-.02-.29-.24-.57-.5-.83-.79-.04-.04-.47-.63-.18-.21-.13-.19-.26-.38-.37-.58s-.22-.41-.31-.62c.2,.47-.06-.22-.07-.26-.07-.22-.13-.44-.17-.66-.03-.12-.1-.78-.05-.24-.04-.46-.05-.92-.02-1.38,0,.02,.08-.72,.03-.35-.04,.27,.11-.49,.13-.57,.04-.15,.08-.3,.12-.44,.03-.09,.36-.94,.15-.48,.19-.42,.41-.82,.67-1.2,.08-.13,.17-.25,.26-.37-.31,.39,.29-.29,.36-.36,.11-.11,.22-.21,.33-.31,.22-.18,.23-.2,.03-.04,.12-.09,.25-.18,.38-.26,1.13-.74,1.6-2.21,.9-3.42-.66-1.12-2.29-1.64-3.42-.9h0Z"/><path class="b" d="M207.25,96.08c-3.81-.77-7.64,.35-10.54,2.93s-4.27,6.4-3.25,10.04c.96,3.45,3.91,6.2,7.31,7.21,3.75,1.11,7.52-.3,9.84-3.39s2.7-6.94,2.7-10.54c0-4.77-.46-9.55-.9-14.29-.93-10.02-1.94-20.03-2.91-30.04l-3.31-34.09c-.12-1.24-.86-2.3-2.17-2.46-1.11-.13-2.56,.55-2.74,1.79-1.82,12.23-.46,24.47,1.78,36.54,2.26,12.16,4.99,24.24,7.52,36.34l4.29,20.48c.28,1.32,1.83,2.09,3.08,1.75,1.37-.38,2.02-1.75,1.75-3.08l-7.51-35.83c-2.43-11.59-5.25-23.22-6.35-35.03-.62-6.59-.71-13.28,.27-19.84l-4.91-.66c1.71,17.62,3.43,35.24,5.14,52.86,.83,8.52,2.05,17.16,1.99,25.74-.02,2.57-.21,5.65-1.94,7.71s-3.92,1.77-5.87,.45c-2.17-1.47-3.03-4-1.69-6.36s4.45-3.92,7.13-3.39c1.32,.27,2.7-.38,3.08-1.75,.34-1.23-.42-2.81-1.75-3.08h0Z"/><path class="b" d="M257.52,78.35c-7.37,.42-14.35,3.12-20.08,7.77-1.39,1.13-2.73,2.38-3.33,4.12s-.13,3.71,1.09,5.09c2.31,2.61,6.38,3.05,9.56,3.84l14.03,3.47-1.75-3.08c-1.05,3.06-4.35,4.82-6.95,6.38-3.92,2.36-7.83,4.72-11.75,7.07l-23.93,14.41-13.46,8.1c-2.75,1.66-.24,5.98,2.52,4.32,16.52-9.95,33.06-19.87,49.57-29.84,3.73-2.25,7.35-4.82,8.82-9.11,.43-1.26-.49-2.77-1.75-3.08l-13.06-3.23c-2.08-.51-4.22-.93-6.26-1.58-.61-.2-1.31-.45-1.79-.88-.15-.14-.22-.24-.16-.35,.67-1.24,2.15-2.18,3.28-2.98,1.53-1.08,3.15-2.02,4.84-2.81,3.29-1.54,6.93-2.42,10.55-2.63,3.2-.18,3.22-5.18,0-5h0Z"/></g><path class="b" d="M75.56,9.18l.77,85.86c.06,7.16,.14,14.31,.19,21.47,.02,2.72,.09,5.61-1.74,7.82s-4.47,3.46-6.89,4.76c-5.78,3.11-11.72,5.93-17.8,8.4s-12.23,5.22-18.71,4.86c-11.78-.65-20.28-11.75-26.71-20.42-.8-1.08-2.17-1.63-3.42-.9-1.07,.62-1.7,2.33-.9,3.42,6.61,8.93,14.39,18.84,25.57,22,6.48,1.83,12.98,.52,19.18-1.71,6.64-2.39,13.16-5.21,19.49-8.33,2.94-1.45,5.9-2.94,8.72-4.62,2.61-1.56,5.22-3.53,6.65-6.29,1.61-3.11,1.56-6.59,1.53-10l-.1-10.98-.4-44.93-.45-50.42c-.03-3.22-5.03-3.22-5,0h0Z"/></g><path class="b" d="M2.52,14.1c17.17-1.93,34.38-3.49,51.61-4.72s35.43-2.18,53.17-2.78c18.02-.61,36.05-.89,54.08-.85s35.75,.41,53.61,1.11c17.27,.68,34.53,1.69,51.75,3.07,2.12,.17,4.24,.35,6.36,.53,1.35,.12,2.5-1.23,2.5-2.5,0-1.45-1.15-2.38-2.5-2.5-17.21-1.47-34.46-2.57-51.72-3.33-17.73-.79-35.47-1.23-53.22-1.35s-36.06,.08-54.08,.6-35.72,1.36-53.56,2.55c-17.24,1.15-34.47,2.61-51.65,4.46-2.11,.23-4.23,.46-6.34,.7C1.18,9.25,.02,10.14,.02,11.6c0,1.23,1.15,2.65,2.5,2.5h0Z"/></svg>